# xmcd
#
# Track frame offsets:
# 150
# 22056
# 41558
# 53033
# 69958
# 88145
# 105251
# 122009
# 139999
# 160178
#
# Disc length: 2432 seconds
#
# Revision: 0
# Processed by: cddbd v1.5.2PL0 Copyright (c) Steve Scherf et al.
# Submitted via: cdrdao 1.2.3rc2
#
DISCID=80097e0a
DTITLE=Karjalan Sissit - Fucking Whore Society
DYEAR=2009
DGENRE=country
TTITLE0=Jävla Psykopat Kärring (Värre Än En Horunge)
TTITLE1=Asuntovaunussa Huoraamassa
TTITLE2=Slödderet Maste Bort
TTITLE3=Loppuun Nussittu Avioliitto
TTITLE4=Har Du Horat Runt Pa Campingen?
TTITLE5=Nyt Tulee Kirvestä - Perkele
TTITLE6=Hyi Helevetti (You Are A Whore And Will Always Be)
TTITLE7=Skitfolk
TTITLE8=Knulldate
TTITLE9=Solmu On Solmittu
EXTD=Cyclic Law 2009
EXTT0=
EXTT1=
EXTT2=
EXTT3=
EXTT4=
EXTT5=
EXTT6=
EXTT7=
EXTT8=
EXTT9=
PLAYORDER=
